<!DOCTYPE svg PUBLIC "-//W3C//DTD SVG 1.1//EN" "http://www.w3.org/Graphics/SVG/1.1/DTD/svg11.dtd">
<!-- Uploaded to: SVG Repo, www.svgrepo.com, Transformed by: SVG Repo Mixer Tools -->
<svg fill="#ffffff" width="256px" height="256px" viewBox="0 0 24 24" id="hand-grip" data-name="Flat Color" xmlns="http://www.w3.org/2000/svg" class="icon flat-color" stroke="#ffffff">
<g id="SVGRepo_bgCarrier" stroke-width="0"/>
<g id="SVGRepo_tracerCarrier" stroke-linecap="round" stroke-linejoin="round"/>
<g id="SVGRepo_iconCarrier">
<path id="secondary" d="M16,5.83h0a4,4,0,0,0-8,0H8l-1,6A1,1,0,0,0,7.78,13H8a1,1,0,0,0,1-.83l.54-3.09a3.91,3.91,0,0,0,5,0l.54,3.09A1,1,0,0,0,16,13h.18A1,1,0,0,0,17,11.83ZM12,8a2,2,0,1,1,2-2A2,2,0,0,1,12,8Z" style="fill: #c8cacb;"/>
<path id="primary" d="M10.44,12a2,2,0,0,1,.33,1.5L9.44,21.17a1.05,1.05,0,0,1-.41.65,1,1,0,0,1-.58.18H8.28l-3.95-.7a1,1,0,0,1-.82-1.15l1.34-7.68a2,2,0,0,1,.82-1.29,2,2,0,0,1,1.5-.33l2,.34A2,2,0,0,1,10.44,12Zm8.71.46a2,2,0,0,0-.82-1.29,2,2,0,0,0-1.5-.33l-2,.34a2,2,0,0,0-1.29.82,2,2,0,0,0-.33,1.5l1.33,7.67a1.05,1.05,0,0,0,.41.65,1,1,0,0,0,.58.18h.17l4-.7a1,1,0,0,0,.82-1.15Z" style="fill: #a38f8f;"/>
</g>
</svg>